<svg width="50" height="47" viewBox="0 0 50 47" fill="none" xmlns="http://www.w3.org/2000/svg">
<g clip-path="url(#clip0)">
<path d="M33.3977 4.98324C36.0019 4.98324 38.1991 5.96241 39.9895 7.92074C42.0077 7.5011 43.8958 6.74924 45.6536 5.66516C44.97 7.90326 43.6679 9.6168 41.7473 10.8058C43.5377 10.596 45.2467 10.1064 46.8743 9.33704C46.4836 9.9665 46.0523 10.5697 45.5803 11.1467C45.1083 11.7238 44.6038 12.2658 44.0667 12.7729C43.5295 13.2799 42.968 13.7608 42.3821 14.2154C42.4146 14.635 42.4309 15.0372 42.4309 15.4219C42.4309 17.4851 42.1786 19.5658 41.6741 21.664C41.1695 23.7623 40.4371 25.808 39.4768 27.8013C38.5165 29.7946 37.2958 31.648 35.8147 33.3616C34.3336 35.0751 32.6734 36.5789 30.8342 37.8727C28.995 39.1666 26.8791 40.1808 24.4866 40.9152C22.094 41.6495 19.5631 42.0167 16.8938 42.0167C11.9133 42.0167 7.32348 40.6179 3.12426 37.8203C3.48234 37.8553 3.83227 37.8902 4.17407 37.9252C4.51587 37.9602 4.88208 37.9777 5.2727 37.9777C9.43937 37.9777 13.1503 36.6313 16.4055 33.9386C14.4524 33.9036 12.7109 33.2829 11.1809 32.0764C9.65096 30.87 8.59301 29.3225 8.00708 27.4341C8.20239 27.4691 8.38956 27.5041 8.5686 27.539C8.74764 27.574 8.93481 27.6002 9.13012 27.6177C9.32544 27.6352 9.52075 27.644 9.71606 27.644C10.5299 27.644 11.3111 27.5216 12.0598 27.2768C10.009 26.8571 8.30005 25.7905 6.93286 24.077C5.56567 22.3635 4.88208 20.3701 4.88208 18.0971V17.9922C6.15161 18.7265 7.50252 19.1112 8.93481 19.1462C8.12101 18.5867 7.42114 17.9135 6.8352 17.1267C6.24926 16.3398 5.7854 15.4481 5.4436 14.4514C5.1018 13.4548 4.93091 12.4319 4.93091 11.3828C4.93091 10.5435 5.0367 9.72171 5.24829 8.91739C5.45988 8.11308 5.76098 7.36122 6.15161 6.66181C8.3977 9.56434 11.1239 11.8724 14.3303 13.5859C17.5367 15.2995 20.9791 16.2611 24.6575 16.471C24.4947 15.7716 24.4133 15.0547 24.4133 14.3203C24.4133 11.7325 25.2922 9.52937 27.05 7.71092C28.8079 5.89247 30.9237 4.98324 33.3977 4.98324ZM33.3977 1.6261C30.3704 1.6261 27.7174 2.68395 25.4387 4.79965C23.1601 6.91535 21.8254 9.52937 21.4348 12.6417C16.1939 11.5227 11.8971 8.81248 8.54419 4.51114C7.9257 3.70683 7.12817 3.30467 6.15161 3.30467L5.90747 3.35713C4.83325 3.42707 4.01945 3.95162 3.46606 4.93079C2.35929 6.92409 1.80591 9.07476 1.80591 11.3828C1.80591 12.8865 2.05005 14.3378 2.53833 15.7366C2.01749 16.401 1.75708 17.1529 1.75708 17.9922V18.0971C1.75708 21.4193 2.8313 24.3043 4.97973 26.7522C4.91463 27.032 4.89022 27.3205 4.90649 27.6177C4.92277 27.915 4.96346 28.2035 5.02856 28.4832C5.74471 30.7563 6.94913 32.6622 8.64184 34.2009C8.08846 34.3408 7.52693 34.4457 6.95727 34.5156C6.38761 34.5855 5.82609 34.6205 5.2727 34.6205C4.62166 34.6205 4.01945 34.5855 3.46606 34.5156L3.12426 34.4632C2.44067 34.4632 1.83032 34.673 1.29321 35.0926C0.7561 35.5123 0.373613 36.0543 0.145749 36.7187C-0.0821158 37.4531 -0.0739778 38.1962 0.170163 38.9481C0.414304 39.6999 0.845619 40.2682 1.46411 40.6529C6.15161 43.8002 11.2948 45.3739 16.8938 45.3739C20.3443 45.3739 23.5995 44.8231 26.6594 43.7215C29.7193 42.62 32.3723 41.1075 34.6184 39.1841C36.8645 37.2608 38.8095 35.0489 40.4534 32.5485C42.0973 30.0482 43.3505 27.3729 44.2131 24.5229C45.0758 21.6728 45.5234 18.779 45.5559 15.8415C47.0208 14.5476 48.2903 13.0614 49.3645 11.3828C49.5924 11.103 49.7551 10.7883 49.8528 10.4386C49.9504 10.0889 49.9993 9.72171 49.9993 9.33704C49.9993 8.18302 49.5598 7.27379 48.6809 6.60936C48.7786 6.15474 48.8111 5.71762 48.7786 5.29797C48.746 4.87833 48.6321 4.46743 48.4368 4.06527C48.2415 3.66312 47.981 3.32216 47.6555 3.04239C47.0696 2.55281 46.4023 2.30802 45.6536 2.30802C45.5234 2.30802 45.3932 2.31676 45.2629 2.33425C45.1327 2.35173 45.0025 2.37796 44.8723 2.41293C44.7421 2.4479 44.6119 2.49161 44.4817 2.54407C44.3515 2.59652 44.2213 2.65772 44.0911 2.72766C43.082 3.3921 41.9915 3.89916 40.8196 4.24887C38.606 2.50035 36.1321 1.6261 33.3977 1.6261Z" fill="#1DA1F2"/>
</g>
<defs>
<clipPath id="clip0">
<rect width="50" height="47" fill="white"/>
</clipPath>
</defs>
</svg>
